HIERARCHY
ROOT Hips
{
  OFFSET 27.8164 92.7218 115.191
  CHANNELS 6 Xposition Yposition Zposition Zrotation Xrotation Yrotation
  JOINT ToSpine
  {
    OFFSET -2.69724 7.43032 -0.144315
    CHANNELS 3 Zrotation Xrotation Yrotation
    JOINT Spine
    {
      OFFSET -0.0310711 10.7595 1.96963
      CHANNELS 3 Zrotation Xrotation Yrotation
      JOINT Spine1
      {
        OFFSET 13.1342 3.43533 0.764692
        CHANNELS 3 Zrotation Xrotation Yrotation
        JOINT Neck
        {
          OFFSET 29.8703 7.82586 -0.130764
          CHANNELS 3 Zrotation Xrotation Yrotation
          JOINT Head
          {
            OFFSET 9.52751 0.295786 -0.907742
            CHANNELS 3 Zrotation Xrotation Yrotation
            End Site
            {
              OFFSET 16.4037 0.713936 2.7358
            }
          }
        }
        JOINT LeftShoulder
        {
          OFFSET 27.5574 4.95586 2.47156
          CHANNELS 3 Zrotation Xrotation Yrotation
          JOINT LeftArm
          {
            OFFSET 1.20734 -0.998971 20.1238
            CHANNELS 3 Zrotation Xrotation Yrotation
            JOINT LeftForeArm
            {
              OFFSET 26.8049 -0.0536703 -0.155908
              CHANNELS 3 Zrotation Xrotation Yrotation
              JOINT LeftHand
              {
                OFFSET 26.6817 0 0.320147
                CHANNELS 3 Zrotation Xrotation Yrotation
                End Site
                {
                  OFFSET 18.6119 0 0.382219
                }
              }
            }
          }
        }
        JOINT RightShoulder
        {
          OFFSET 27.5927 4.71444 -2.65209
          CHANNELS 3 Zrotation Xrotation Yrotation
          JOINT RightArm
          {
            OFFSET 2.83739 -1.17114 -18.7564
            CHANNELS 3 Zrotation Xrotation Yrotation
            JOINT RightForeArm
            {
              OFFSET 28.839 -0.0548439 1.22491
              CHANNELS 3 Zrotation Xrotation Yrotation
              JOINT RightHand
              {
                OFFSET 26.5114 0 -0.101894
                CHANNELS 3 Zrotation Xrotation Yrotation
                End Site
                {
                  OFFSET 18.2168 0 0
                }
              }
            }
          }
        }
      }
    }
  }
  JOINT LeftUpLeg
  {
    OFFSET -4.76168 -1.9167 -10.2353
    CHANNELS 3 Zrotation Xrotation Yrotation
    JOINT LeftLeg
    {
      OFFSET 2.55951 -42.0585 -8.02213
      CHANNELS 3 Zrotation Xrotation Yrotation
      JOINT LeftFoot
      {
        OFFSET 3.16357 -42.5282 -3.95426
        CHANNELS 3 Zrotation Xrotation Yrotation
        JOINT LeftToeBase
        {
          OFFSET 0.346054 -6.02161 12.8035
          CHANNELS 3 Zrotation Xrotation Yrotation
          End Site
          {
            OFFSET 0.134235 -1.35082 5.13018
          }
        }
      }
    }
  }
  JOINT RightUpLeg
  {
    OFFSET -4.94151 -1.41743 10.6446
    CHANNELS 3 Zrotation Xrotation Yrotation
    JOINT RightLeg
    {
      OFFSET -2.56294 -42.0364 -7.94377
      CHANNELS 3 Zrotation Xrotation Yrotation
      JOINT RightFoot
      {
        OFFSET -3.0952 -42.555 -4.02241
        CHANNELS 3 Zrotation Xrotation Yrotation
        JOINT RightToeBase
        {
          OFFSET -0.0828122 -6.13587 12.8035
          CHANNELS 3 Zrotation Xrotation Yrotation
          End Site
          {
            OFFSET -0.131328 -1.35082 5.13018
          }
        }
      }
    }
  }
}
MOTION
Frames:	6
Frame Time:	0.0333333
28.0677 93.2658 113.965 68.4033 -39.8303 -13.2363 -70.1915 0 88.8779 71.3385 71.517 12.5535 4.33628 19.8281 6.09936 -125.191 32.0245 163.149 170.607 73.2444 -141.197 0.877568 -11.9552 -19.0041 -63.8182 42.4404 -140.914 21.4425 -4.96973 -101.657 0.420957 0.00057515 0.35866 -1.27733 7.25984 32.1631 -127.19 -27.0233 87.7616 6.24255 0.855746 97.3927 0.58676 0.000330657 0.0646655 -51.819 11.4853 96.1415 -2.58451 41.1749 -5.57853 0.842228 -14.0372 -1.21255 4.11399 -11.176 13.3474 -41.8507 -12.0475 78.0053 1.53932 31.2468 -2.74193 -2.62839 -0.393024 0.508509 0.517589 -4.59904 0.217026 
28.0751 93.2542 113.976 68.3834 -39.8078 -13.2407 -70.1915 0 88.8779 71.5122 71.7569 12.6471 4.3677 20.3248 5.47644 -124.466 31.4585 161.093 174.601 73.6638 -144.861 0.872144 -12.1244 -18.3624 -63.4671 42.2923 -141.881 21.485 -4.77382 -101.163 0.420957 0.00057515 0.35866 -1.24346 6.70973 33.294 -127.536 -25.6803 88.3691 5.83315 0.793208 97.3316 0.58676 0.000330657 0.0646655 -51.7693 11.5156 96.1504 -2.60173 41.2812 -5.62343 0.380187 -14.3961 -1.23976 3.95935 -10.9334 13.3637 -41.7894 -12.1323 77.826 1.59053 31.4393 -2.50693 -3.62476 -0.0480291 0.619015 0.668831 -5.7738 0.147868 
28.0991 93.2666 114.026 68.3994 -39.7569 -13.236 -70.1915 0 88.8779 70.4613 71.772 13.83 4.93836 20.6319 4.94034 -124.1 31.0572 159.554 178.095 73.9763 -148.027 0.840441 -12.5733 -18.0064 -63.8357 41.7878 -142.318 21.2995 -4.45419 -100.498 0.420957 0.00057515 0.35866 -1.23956 6.48366 33.9358 -128.326 -25.3351 88.4666 5.89031 0.794875 97.2806 0.58676 0.000330657 0.0646655 -51.7799 11.4331 95.9766 -2.61666 41.4419 -5.58988 -0.454267 -15.2093 -1.30655 3.17945 -9.6713 13.2192 -41.7813 -12.1283 77.8167 1.53602 31.6668 -2.66927 -4.87898 0.280552 0.769103 0.762374 -6.82552 0.518258 
28.1107 93.251 114.07 68.4609 -39.6971 -13.1751 -70.1915 0 88.8779 70.1868 71.7195 14.0008 5.1474 20.601 4.97742 -124.371 31.0657 159.594 178.051 73.9461 -148.134 0.870759 -12.2563 -17.8257 -63.5275 41.6629 -142.708 21.2054 -4.41976 -100.466 0.420957 0.00057515 0.35866 -1.207 6.34291 33.8829 -128.299 -25.5257 88.6221 5.82731 0.785809 97.2761 0.58676 0.000330657 0.0646655 -51.8209 11.448 95.9468 -2.61407 41.431 -5.57805 -0.246205 -15.1399 -1.30031 3.28458 -9.83522 13.1975 -41.8125 -12.138 77.761 1.53285 31.7583 -2.65611 -5.03913 0.316113 0.789271 0.82776 -7.08709 0.195987 
28.1302 93.2382 114.102 68.4595 -39.5959 -13.1618 -70.1915 0 88.8779 69.8135 71.6317 14.4948 5.43212 20.5954 4.71348 -124.672 30.9428 159.636 178.595 73.827 -148.853 0.852916 -12.4237 -18.0078 -63.682 41.561 -142.522 20.9129 -4.37953 -100.532 0.420957 0.00057515 0.35866 -1.22341 6.36761 34.0746 -128.309 -25.3172 88.7766 5.64201 0.770604 97.3621 0.58676 0.000330657 0.0646655 -51.7819 11.3952 95.8643 -2.59201 41.3986 -5.4162 -0.0428256 -14.8328 -1.27368 3.59402 -10.2967 12.9933 -41.76 -12.3716 77.4302 1.56448 31.9318 -2.75461 -4.90999 0.0153289 0.783305 0.639004 -6.52962 1.31862 
28.1157 93.2277 114.17 68.4924 -39.6392 -13.068 -70.1915 0 88.8779 71.116 71.8473 13.0907 4.84197 20.6632 4.98346 -124.308 30.8829 159.216 179.664 73.9767 -149.647 0.896312 -11.9359 -17.9168 -63.1658 41.2139 -143.028 22.1481 -4.63341 -100.46 0.420957 0.00057515 0.35866 -1.18657 6.15664 34.1959 -128.098 -25.1462 88.9131 5.35948 0.748015 97.5008 0.58676 0.000330657 0.0646655 -51.8443 11.515 95.8347 -2.59807 41.434 -5.43129 -0.292944 -14.9186 -1.28164 3.59108 -10.2763 12.9023 -41.7441 -12.2076 77.5412 1.45823 32.0678 -3.15117 -4.41827 -0.352229 0.733126 0.469892 -5.86622 2.00861 
